<svg
  viewBox="0 0 512 512"
  xmlns="http://www.w3.org/2000/svg"
  fill="#000000"
>
  <circle cx="256" cy="256" r="256" fill="#FFDD67" />
  <circle cx="393.6" cy="208.8" r="32" fill="#664500" />
  <circle cx="118.4" cy="208.8" r="32" fill="#664500" />
  <path
    d="M512 256c0 141.4-114.6 256-256 256s-256-114.6-256-256 114.6-256 256-256 256 114.6 256 256z"
    fill="#F76D57"
  />
  <path
    d="M345.6 376.8c-29.8 0-55.3 17.1-68.2 42.2-1.9 3.9-6.7 6.3-11.5 6.3-4.9 0-9.6-2.4-11.5-6.3-12.9-25.1-38.4-42.2-68.2-42.2s-55.3 17.1-68.2 42.2c-1.9 3.9-6.7 6.3-11.5 6.3s-9.6-2.4-11.5-6.3c-12.9-25.1-38.4-42.2-68.2-42.2-47.8 0-86.6 38.8-86.6 86.6s38.8 86.6 86.6 86.6h256c47.8 0 86.6-38.8 86.6-86.6-.1-47.9-38.9-86.7-86.7-86.7z"
    fill="#664500"
  />
</svg>
